<?xml version="1.0" encoding="UTF-8" standalone="no"?>
<svg
   xmlns:dc="http://purl.org/dc/elements/1.1/"
   xmlns:cc="http://creativecommons.org/ns#"
   xmlns:rdf="http://www.w3.org/1999/02/22-rdf-syntax-ns#"
   xmlns:svg="http://www.w3.org/2000/svg"
   xmlns="http://www.w3.org/2000/svg"
   xmlns:sodipodi="http://sodipodi.sourceforge.net/DTD/sodipodi-0.dtd"
   xmlns:inkscape="http://www.inkscape.org/namespaces/inkscape"
   width="222"
   height="50"
   viewBox="0 0 58.737502 13.229166"
   version="1.1"
   id="svg1180"
   inkscape:version="0.92.5 (2060ec1f9f, 2020-04-08)"
   sodipodi:docname="logo-dark.svg">
  <defs
     id="defs1174">
    <rect
       x="142.75887"
       y="125.99912"
       width="143.44196"
       height="38.364582"
       id="rect936" />
    <rect
       x="123.28034"
       y="138.08029"
       width="22.016327"
       height="11.125094"
       id="rect930" />
    <marker
       style="overflow:visible"
       id="StopS"
       refX="0"
       refY="0"
       orient="auto"
       inkscape:stockid="StopS"
       inkscape:isstock="true">
      <path
         transform="scale(0.2)"
         style="fill:none;fill-opacity:0.75;fill-rule:evenodd;stroke:#000000;stroke-width:1.00000003pt;stroke-opacity:1"
         d="M 0,5.65 V -5.65"
         id="path1494"
         inkscape:connector-curvature="0" />
    </marker>
    <marker
       style="overflow:visible"
       id="Arrow2Mend"
       refX="0"
       refY="0"
       orient="auto"
       inkscape:stockid="Arrow2Mend"
       inkscape:isstock="true">
      <path
         transform="scale(-0.6)"
         d="M 8.7185878,4.0337352 -2.2072895,0.01601326 8.7185884,-4.0017078 c -1.7454984,2.3720609 -1.7354408,5.6174519 -6e-7,8.035443 z"
         style="fill:#000000;fill-opacity:1;fill-rule:evenodd;stroke:#000000;stroke-width:0.625;stroke-linejoin:round;stroke-opacity:1"
         id="path1346"
         inkscape:connector-curvature="0" />
    </marker>
    <marker
       style="overflow:visible"
       id="DotM"
       refX="0"
       refY="0"
       orient="auto"
       inkscape:stockid="DotM"
       inkscape:isstock="true">
      <path
         transform="matrix(0.4,0,0,0.4,2.96,0.4)"
         style="fill:#000000;fill-opacity:1;fill-rule:evenodd;stroke:#000000;stroke-width:1.00000003pt;stroke-opacity:1"
         d="m -2.5,-1 c 0,2.76 -2.24,5 -5,5 -2.76,0 -5,-2.24 -5,-5 0,-2.76 2.24,-5 5,-5 2.76,0 5,2.24 5,5 z"
         id="path1383"
         inkscape:connector-curvature="0" />
    </marker>
    <marker
       style="overflow:visible"
       id="EmptyDiamondSstart"
       refX="0"
       refY="0"
       orient="auto"
       inkscape:stockid="EmptyDiamondSstart"
       inkscape:isstock="true">
      <path
         transform="matrix(0.2,0,0,0.2,1.2,0)"
         style="fill:#ffffff;fill-rule:evenodd;stroke:#000000;stroke-width:1.00000003pt;stroke-opacity:1"
         d="M 0,-7.0710768 -7.0710894,0 0,7.0710589 7.0710462,0 Z"
         id="path1440"
         inkscape:connector-curvature="0" />
    </marker>
    <marker
       style="overflow:visible"
       id="EmptyDiamondLstart"
       refX="0"
       refY="0"
       orient="auto"
       inkscape:stockid="EmptyDiamondLstart"
       inkscape:isstock="true">
      <path
         transform="matrix(0.8,0,0,0.8,5.6,0)"
         style="fill:#ffffff;fill-rule:evenodd;stroke:#000000;stroke-width:1.00000003pt;stroke-opacity:1"
         d="M 0,-7.0710768 -7.0710894,0 0,7.0710589 7.0710462,0 Z"
         id="path1434"
         inkscape:connector-curvature="0" />
    </marker>
    <marker
       style="overflow:visible"
       id="Arrow1Mend"
       refX="0"
       refY="0"
       orient="auto"
       inkscape:stockid="Arrow1Mend"
       inkscape:isstock="true">
      <path
         transform="matrix(-0.4,0,0,-0.4,-4,0)"
         style="fill:#000000;fill-opacity:1;fill-rule:evenodd;stroke:#000000;stroke-width:1.00000003pt;stroke-opacity:1"
         d="M 0,0 5,-5 -12.5,0 5,5 Z"
         id="path1328"
         inkscape:connector-curvature="0" />
    </marker>
    <marker
       style="overflow:visible"
       id="Arrow1Lend"
       refX="0"
       refY="0"
       orient="auto"
       inkscape:stockid="Arrow1Lend"
       inkscape:isstock="true">
      <path
         transform="matrix(-0.8,0,0,-0.8,-10,0)"
         style="fill:#000000;fill-opacity:1;fill-rule:evenodd;stroke:#000000;stroke-width:1.00000003pt;stroke-opacity:1"
         d="M 0,0 5,-5 -12.5,0 5,5 Z"
         id="path1322"
         inkscape:connector-curvature="0" />
    </marker>
    <inkscape:perspective
       sodipodi:type="inkscape:persp3d"
       inkscape:vp_x="3.085925 : 7.5580863e-16 : 0"
       inkscape:vp_y="-1.0024249e-13 : 545.71269 : 0"
       inkscape:vp_z="4.3163496 : 52.015888 : 1"
       inkscape:persp3d-origin="2.3766922 : 50.188571 : 1"
       id="perspective1042" />
  </defs>
  <sodipodi:namedview
     id="base"
     pagecolor="#ffffff"
     bordercolor="#666666"
     borderopacity="1.0"
     inkscape:pageopacity="0.0"
     inkscape:pageshadow="2"
     inkscape:zoom="7.9999996"
     inkscape:cx="13.163636"
     inkscape:cy="17.725305"
     inkscape:document-units="mm"
     inkscape:current-layer="layer1"
     showgrid="false"
     fit-margin-top="0"
     fit-margin-left="0"
     fit-margin-right="0"
     fit-margin-bottom="0"
     inkscape:window-width="2498"
     inkscape:window-height="1016"
     inkscape:window-x="1982"
     inkscape:window-y="27"
     inkscape:window-maximized="1"
     units="px"
     inkscape:document-rotation="0" />
  <metadata
     id="metadata1177">
    <rdf:RDF>
      <cc:Work
         rdf:about="">
        <dc:format>image/svg+xml</dc:format>
        <dc:type
           rdf:resource="http://purl.org/dc/dcmitype/StillImage" />
        <dc:title />
      </cc:Work>
    </rdf:RDF>
  </metadata>
  <g
     inkscape:label="Layer 1"
     inkscape:groupmode="layer"
     id="layer1"
     transform="translate(-135.65292,-106.60618)">
    <flowRoot
       xml:space="preserve"
       id="flowRoot821"
       style="font-style:normal;font-weight:normal;font-size:40px;line-height:1.25;font-family:sans-serif;letter-spacing:0px;word-spacing:0px;fill:#000000;fill-opacity:1;stroke:none"
       transform="matrix(0.26458333,0,0,0.26458333,106.95109,131.54834)"><flowRegion
         id="flowRegion823"><rect
           id="rect825"
           width="107.85714"
           height="70"
           x="18.928572"
           y="-8.9821386" /></flowRegion><flowPara
         id="flowPara827" /></flowRoot>    <g
       transform="matrix(0.01538545,0,0,0.01538545,107.99775,134.63979)"
       id="g1098"
       style="font-style:normal;font-weight:normal;font-size:40px;line-height:1.25;font-family:sans-serif;letter-spacing:0px;word-spacing:0px;fill:#000000;fill-opacity:1;stroke:none">
      <g
         id="g1096" />
    </g>
    <g
       transform="matrix(0.01538545,0,0,0.01538545,107.99775,134.63979)"
       id="g1104"
       style="font-style:normal;font-weight:normal;font-size:40px;line-height:1.25;font-family:sans-serif;letter-spacing:0px;word-spacing:0px;fill:#000000;fill-opacity:1;stroke:none">
      <g
         id="g1102" />
    </g>
    <g
       transform="matrix(0.01538545,0,0,0.01538545,107.99775,134.63979)"
       id="g1110"
       style="font-style:normal;font-weight:normal;font-size:40px;line-height:1.25;font-family:sans-serif;letter-spacing:0px;word-spacing:0px;fill:#000000;fill-opacity:1;stroke:none">
      <g
         id="g1108" />
    </g>
    <g
       transform="matrix(0.01538545,0,0,0.01538545,107.99775,134.63979)"
       id="g1116"
       style="font-style:normal;font-weight:normal;font-size:40px;line-height:1.25;font-family:sans-serif;letter-spacing:0px;word-spacing:0px;fill:#112b00;fill-opacity:1;stroke:none">
      <g
         id="g1114"
         style="fill:#112b00" />
    </g>
    <g
       transform="matrix(0.01538545,0,0,0.01538545,107.99775,134.63979)"
       id="g1122"
       style="font-style:normal;font-weight:normal;font-size:40px;line-height:1.25;font-family:sans-serif;letter-spacing:0px;word-spacing:0px;fill:#000000;fill-opacity:1;stroke:none">
      <g
         id="g1120" />
    </g>
    <g
       transform="matrix(0.01538545,0,0,0.01538545,107.99775,134.63979)"
       id="g1128"
       style="font-style:normal;font-weight:normal;font-size:40px;line-height:1.25;font-family:sans-serif;letter-spacing:0px;word-spacing:0px;fill:#000000;fill-opacity:1;stroke:none">
      <g
         id="g1126" />
    </g>
    <g
       transform="matrix(0.01538545,0,0,0.01538545,107.99775,134.63979)"
       id="g1134"
       style="font-style:normal;font-weight:normal;font-size:40px;line-height:1.25;font-family:sans-serif;letter-spacing:0px;word-spacing:0px;fill:#000000;fill-opacity:1;stroke:none">
      <g
         id="g1132" />
    </g>
    <g
       transform="matrix(0.01538545,0,0,0.01538545,107.99775,134.63979)"
       id="g1140"
       style="font-style:normal;font-weight:normal;font-size:40px;line-height:1.25;font-family:sans-serif;letter-spacing:0px;word-spacing:0px;fill:#000000;fill-opacity:1;stroke:none">
      <g
         id="g1138" />
    </g>
    <g
       transform="matrix(0.01538545,0,0,0.01538545,107.99775,134.63979)"
       id="g1146"
       style="font-style:normal;font-weight:normal;font-size:40px;line-height:1.25;font-family:sans-serif;letter-spacing:0px;word-spacing:0px;fill:#000000;fill-opacity:1;stroke:none">
      <g
         id="g1144" />
    </g>
    <g
       transform="matrix(0.01538545,0,0,0.01538545,107.99775,134.63979)"
       id="g1152"
       style="font-style:normal;font-weight:normal;font-size:40px;line-height:1.25;font-family:sans-serif;letter-spacing:0px;word-spacing:0px;fill:#000000;fill-opacity:1;stroke:none">
      <g
         id="g1150" />
    </g>
    <g
       transform="matrix(0.01538545,0,0,0.01538545,107.99775,134.63979)"
       id="g1158"
       style="font-style:normal;font-weight:normal;font-size:40px;line-height:1.25;font-family:sans-serif;letter-spacing:0px;word-spacing:0px;fill:#000000;fill-opacity:1;stroke:none">
      <g
         id="g1156" />
    </g>
    <g
       transform="matrix(0.01538545,0,0,0.01538545,107.99775,134.63979)"
       id="g1164"
       style="font-style:normal;font-weight:normal;font-size:40px;line-height:1.25;font-family:sans-serif;letter-spacing:0px;word-spacing:0px;fill:#000000;fill-opacity:1;stroke:none">
      <g
         id="g1162" />
    </g>
    <g
       transform="matrix(0.01538545,0,0,0.01538545,107.99775,134.63979)"
       id="g1170"
       style="font-style:normal;font-weight:normal;font-size:40px;line-height:1.25;font-family:sans-serif;letter-spacing:0px;word-spacing:0px;fill:#000000;fill-opacity:1;stroke:none">
      <g
         id="g1168" />
    </g>
    <text
       xml:space="preserve"
       id="text928"
       style="font-style:normal;font-weight:normal;font-size:10.58329964px;line-height:1.25;font-family:sans-serif;white-space:pre;shape-inside:url(#rect930);fill:#000000;fill-opacity:1;stroke:none" />
    <circle
       style="fill:#44aa00;stroke-width:1.07950199;stroke-linecap:round;fill-opacity:1"
       id="path946-8-3"
       cx="142.00293"
       cy="113.48534"
       r="5.7150154" />
    <ellipse
       style="fill:#338000;stroke-width:1.07950199;stroke-linecap:round;fill-opacity:1"
       id="path946-8-8-6"
       cx="142.00293"
       cy="113.48534"
       rx="1.905005"
       ry="1.9050049" />
    <path
       inkscape:connector-curvature="0"
       id="rect1943-7"
       style="fill:#ccff00;fill-opacity:1;stroke:none;stroke-width:1.07950199;stroke-linecap:round;stroke-linejoin:miter;stroke-miterlimit:4;stroke-dasharray:none;stroke-dashoffset:0"
       d="m 142.00292,107.13531 c -3.51792,0 -6.35,2.8321 -6.35,6.35002 0,3.51792 2.83208,6.35002 6.35,6.35002 3.51792,0 6.35,-2.8321 6.35,-6.35002 0,-3.51792 -2.83208,-6.35002 -6.35,-6.35002 z m -0.98722,1.26504 h 10e-4 a 0.57150148,0.57150148 0 0 1 0.57548,0.44154 0.57150148,0.57150148 0 0 1 -0.42664,0.6883 l -0.1636,0.0372 -0.1872,0.0522 c -0.1862,0.0578 -0.36854,0.1312 -0.54444,0.21578 -0.1742,0.0838 -0.34594,0.177 -0.50604,0.28526 -0.1374,0.0942 -0.26252,0.1902 -0.36958,0.28648 a 0.57150148,0.57150148 0 0 1 -0.80738,-0.0422 0.57150148,0.57150148 0 0 1 0.0472,-0.80614 c 0.1628,-0.1462 0.32662,-0.26936 0.48742,-0.3795 h 0.004 v -0.004 c 0.20598,-0.1392 0.42326,-0.26282 0.64742,-0.37082 0.22656,-0.109 0.45812,-0.20182 0.69826,-0.27658 h 0.008 l 0.23446,-0.071 0.1922,-0.0422 a 0.57150148,0.57150148 0 0 1 0.1064,-0.016 z m 2.24608,0.0832 a 0.57150148,0.57150148 0 0 1 0.1922,0.0246 l 0.0794,0.02 0.22942,0.0794 0.008,0.004 c 0.2352,0.0862 0.46478,0.1854 0.68462,0.3051 0.21796,0.1182 0.42534,0.25452 0.62382,0.40308 0.1978,0.148 0.38238,0.30796 0.55688,0.48244 l 0.004,0.004 0.016,0.016 a 0.57150148,0.57150148 0 0 1 -0.02,0.80616 0.57150148,0.57150148 0 0 1 -0.80618,-0.016 l -0.004,-0.004 -0.004,-0.004 c -0.133,-0.1326 -0.27488,-0.25826 -0.42536,-0.37082 -0.1546,-0.1154 -0.31922,-0.21818 -0.48866,-0.31006 -0.1664,-0.0906 -0.33712,-0.1686 -0.51472,-0.2345 l -0.20204,-0.0694 -0.0472,-0.016 a 0.57150148,0.57150148 0 0 1 -0.39314,-0.70322 0.57150148,0.57150148 0 0 1 0.51098,-0.41672 z m -2.03894,1.63218 a 0.48577684,0.48577684 0 0 1 0.47376,0.35224 0.48577684,0.48577684 0 0 1 -0.33238,0.60026 l -0.016,0.004 -0.016,0.004 c -0.1054,0.0336 -0.20902,0.0748 -0.30884,0.1228 -0.1326,0.064 -0.25682,0.1396 -0.37084,0.22442 a 0.48577684,0.48577684 0 0 1 -0.67966,-0.098 0.48577684,0.48577684 0 0 1 0.099,-0.67966 c 0.1676,-0.1246 0.34648,-0.23016 0.52962,-0.31874 0.147,-0.0712 0.29792,-0.135 0.45392,-0.1834 h 0.008 l 0.0286,-0.008 a 0.48577684,0.48577684 0 0 1 0.1266,-0.02 z m 1.91242,0.0892 a 0.48577684,0.48577684 0 0 1 0.1774,0.0374 l 0.0372,0.016 h 0.004 c 0.1496,0.063 0.29312,0.14 0.43162,0.2244 0.1374,0.0836 0.26906,0.1744 0.39316,0.27658 l 0.004,0.004 0.0844,0.0744 a 0.48577684,0.48577684 0 0 1 0.0522,0.6846 0.48577684,0.48577684 0 0 1 -0.68462,0.0522 l -0.0744,-0.0656 c -0.088,-0.0726 -0.1792,-0.138 -0.27652,-0.1972 -0.094,-0.0572 -0.1942,-0.1116 -0.29518,-0.1552 l -0.0336,-0.016 a 0.48577684,0.48577684 0 0 1 -0.27658,-0.6288 0.48577684,0.48577684 0 0 1 0.45516,-0.30884 z m -5.39626,1.05792 a 0.57150148,0.57150148 0 0 1 0.1922,0.0434 0.57150148,0.57150148 0 0 1 0.31874,0.74042 l -0.004,0.02 -0.0656,0.1834 -0.0508,0.1922 -0.0472,0.1922 -0.0336,0.196 -0.0274,0.20204 -0.016,0.20094 -0.004,0.20706 c 0,0.002 -2e-5,0.002 0,0.004 v 0.008 c 9.4e-4,0.1878 0.016,0.37202 0.0422,0.54816 a 0.57150148,0.57150148 0 0 1 -0.48244,0.65236 0.57150148,0.57150148 0 0 1 -0.65114,-0.48246 c -0.037,-0.24674 -0.0518,-0.48796 -0.0522,-0.72678 v -0.008 l 0.008,-0.25798 0.02,-0.26294 0.0334,-0.25672 0.0422,-0.25424 0.0606,-0.24804 0.0704,-0.2431 0.0794,-0.23928 0.02,-0.0472 a 0.57150148,0.57150148 0 0 1 0.5494,-0.3609 z m 8.62086,0.32618 a 0.57150148,0.57150148 0 0 1 0.57674,0.40556 c 0.069,0.2244 0.116,0.44624 0.15,0.66106 v 0.008 l 0.0334,0.24806 0.02,0.26292 0.008,0.24806 a 0.57150148,0.57150148 0 0 1 0,0.016 0.57150148,0.57150148 0 0 1 0,0.004 0.57150148,0.57150148 0 0 1 0,0.008 l -0.008,0.25298 -0.02,0.25798 -0.0334,0.25796 -0.0422,0.25302 -0.0606,0.24804 -0.0706,0.24928 -0.0744,0.22944 -0.004,0.008 c -0.0862,0.2352 -0.1894,0.4598 -0.30882,0.67966 v 0.008 l -0.016,0.02 a 0.57150148,0.57150148 0 0 1 -0.77764,0.21098 0.57150148,0.57150148 0 0 1 -0.21078,-0.7826 l 0.004,-0.016 c 0.0874,-0.1626 0.1664,-0.32822 0.23064,-0.50102 l 0.0694,-0.20204 0.0522,-0.1872 0.0472,-0.1972 0.0322,-0.196 0.0246,-0.1972 0.02,-0.20598 0.004,-0.1922 v -0.0286 a 0.57150148,0.57150148 0 0 1 0,-0.008 l -0.004,-0.1824 -0.02,-0.20204 -0.0246,-0.196 c -0.0282,-0.1782 -0.0648,-0.35104 -0.1128,-0.50728 a 0.57150148,0.57150148 0 0 1 0.38076,-0.7119 0.57150148,0.57150148 0 0 1 0.108,-0.024 v -10e-4 a 0.57150148,0.57150148 0 0 1 0.0272,-0.002 z m -4.40654,0.25674 c 0.84748,0 1.54286,0.69416 1.54286,1.54162 0,0.84746 -0.69538,1.54656 -1.54286,1.54656 -0.84748,0 -1.54658,-0.6991 -1.54658,-1.54656 0,-0.84746 0.6991,-1.54162 1.54658,-1.54162 z m -2.66776,0.2778 a 0.48577684,0.48577684 0 0 1 0.1376,0.018 0.48577684,0.48577684 0 0 1 0.33734,0.59904 l -0.004,0.004 -0.0246,0.1128 -0.024,0.1178 -0.016,0.1218 -0.008,0.1168 c -1.6e-4,0.004 1.4e-4,0.006 0,0.008 v 0.004 c -0.004,0.1062 -0.004,0.20444 0.004,0.29518 a 0.48577684,0.48577684 0 0 1 -0.4353,0.52956 0.48577684,0.48577684 0 0 1 -0.5296,-0.43532 c -0.016,-0.1574 -0.018,-0.3086 -0.008,-0.4502 v -0.004 l 0.016,-0.1636 0.02,-0.17 0.0336,-0.1636 0.037,-0.1636 0.004,-0.0286 a 0.48577684,0.48577684 0 0 1 0.4217,-0.34724 h 0.001 a 0.48577684,0.48577684 0 0 1 0.0394,-0.002 z m 5.56494,0.26418 a 0.48577684,0.48577684 0 0 1 0.50108,0.40058 l 0.004,0.0422 0.024,0.1686 0.016,0.1686 0.004,0.1586 a 0.48577684,0.48577684 0 0 1 0,0.008 0.48577684,0.48577684 0 0 1 0,0.016 l -0.004,0.1586 -0.016,0.1686 -0.024,0.1686 -0.0286,0.165 -0.037,0.1636 -0.0422,0.16 -0.0422,0.1114 a 0.48577684,0.48577684 0 0 1 -0.61392,0.30512 0.48577684,0.48577684 0 0 1 -0.30508,-0.61394 l 0.0336,-0.0942 0.0274,-0.1128 0.0286,-0.1114 0.02,-0.1178 0.02,-0.1216 0.008,-0.1178 v -0.1116 -0.0246 -0.1114 l -0.008,-0.1178 -0.02,-0.1218 v -0.016 a 0.48577684,0.48577684 0 0 1 0.39318,-0.56676 0.48577684,0.48577684 0 0 1 0.0322,-0.004 0.48577684,0.48577684 0 0 1 0.0286,-10e-4 z m -2.89718,0.2592 c -0.41506,0 -0.74538,0.32538 -0.74538,0.74044 0,0.41506 0.33032,0.74536 0.74538,0.74536 0.41506,0 0.74168,-0.3303 0.74168,-0.74536 0,-0.41506 -0.32662,-0.74044 -0.74168,-0.74044 z m -1.99432,2.17662 a 0.48577684,0.48577684 0 0 1 0.37704,0.1528 l 0.0422,0.0372 0.0892,0.0892 c 0.0808,0.0724 0.1682,0.1414 0.25794,0.20204 h 0.004 c 0.0856,0.0572 0.1652,0.1074 0.24312,0.145 a 0.48577684,0.48577684 0 0 1 0.2256,0.65114 0.48577684,0.48577684 0 0 1 -0.65238,0.2208 c -0.1336,-0.065 -0.25122,-0.1374 -0.36092,-0.21078 -0.1332,-0.0898 -0.26072,-0.192 -0.37952,-0.30012 h -0.004 l -0.1128,-0.1082 -0.056,-0.056 a 0.48577684,0.48577684 0 0 1 0.02,-0.68956 0.48577684,0.48577684 0 0 1 0.27164,-0.1316 0.48577684,0.48577684 0 0 1 0.0348,-0.002 z m 3.5657,0.46384 a 0.48577684,0.48577684 0 0 1 0.43656,0.2232 0.48577684,0.48577684 0 0 1 -0.15,0.66972 l -0.02,0.016 h -0.004 c -0.1386,0.084 -0.28086,0.1612 -0.43038,0.22438 h -0.004 l -0.1454,0.0572 -0.16,0.0558 -0.1552,0.0422 -0.1304,0.0322 a 0.48577684,0.48577684 0 0 1 -0.58168,-0.36462 0.48577684,0.48577684 0 0 1 0.36586,-0.58164 l 0.103,-0.0286 0.1128,-0.0274 0.1082,-0.0372 0.1064,-0.0434 c 0.1056,-0.0448 0.21186,-0.0988 0.31006,-0.1586 a 0.48577684,0.48577684 0 0 1 0.20596,-0.0744 l 0.001,-10e-4 a 0.48577684,0.48577684 0 0 1 0.0322,-0.002 z m -5.21274,0.3175 a 0.57150148,0.57150148 0 0 1 0.0508,0 0.57150148,0.57150148 0 0 1 0.42668,0.22082 l 0.1266,0.1586 0.1266,0.1454 c 0.002,0.002 0.006,0.002 0.008,0.004 v 0.004 c 0.1268,0.1386 0.2633,0.26994 0.40802,0.38946 0.1478,0.122 0.30066,0.23304 0.46386,0.33236 h 0.004 c 0.1416,0.0842 0.27282,0.1564 0.3981,0.21098 a 0.57150148,0.57150148 0 0 1 0.30014,0.75528 0.57150148,0.57150148 0 0 1 -0.75406,0.29516 c -0.198,-0.0856 -0.37422,-0.186 -0.53454,-0.28154 h -0.004 c -0.21142,-0.1288 -0.41444,-0.27412 -0.60524,-0.43158 -0.1902,-0.157 -0.36846,-0.32834 -0.53454,-0.51098 l -0.004,-0.004 -0.154,-0.1824 -0.145,-0.1824 a 0.57150148,0.57150148 0 0 1 0.098,-0.80244 0.57150148,0.57150148 0 0 1 0.3237,-0.1218 z m 6.16648,1.11004 a 0.57150148,0.57150148 0 0 1 0.47128,0.25422 0.57150148,0.57150148 0 0 1 -0.16,0.79254 c -0.1852,0.1242 -0.37194,0.2251 -0.55312,0.31378 h -0.004 c -0.2263,0.109 -0.45932,0.20182 -0.69948,0.27656 l -0.008,0.004 -0.23448,0.0656 -0.25422,0.0556 -0.25302,0.0472 -0.25302,0.0322 -0.1586,0.008 a 0.57150148,0.57150148 0 0 1 -0.61388,-0.5246 0.57150148,0.57150148 0 0 1 0.5246,-0.61392 l 0.1314,-0.008 0.20094,-0.024 0.1972,-0.0384 0.1922,-0.0422 0.1872,-0.056 c 0.1862,-0.0582 0.36856,-0.126 0.54448,-0.21076 0.1542,-0.0752 0.2964,-0.1556 0.42168,-0.23928 a 0.57150148,0.57150148 0 0 1 0.28528,-0.0932 h 0.001 a 0.57150148,0.57150148 0 0 1 0.035,-0.001 z" />
    <path
       inkscape:connector-curvature="0"
       id="path1840"
       style="font-style:normal;font-variant:normal;font-weight:normal;font-stretch:normal;font-size:32px;line-height:1.25;font-family:Lato;-inkscape-font-specification:Lato;letter-spacing:0px;word-spacing:0px;fill:#f9f9f9;fill-opacity:1;stroke:none;stroke-width:0.26458332"
       d="m 157.30582,115.95124 q -0.4572,0.3302 -0.9779,0.4953 -0.51647,0.16087 -1.13454,0.16087 -0.73236,0 -1.3208,-0.22437 -0.58843,-0.2286 -1.00753,-0.635 -0.41487,-0.41063 -0.63923,-0.98213 -0.22437,-0.5715 -0.22437,-1.2573 0,-0.69427 0.2159,-1.26577 0.22013,-0.5715 0.6223,-0.9779 0.40217,-0.41063 0.9779,-0.635 0.57573,-0.22436 1.28693,-0.22436 0.35984,0 0.66887,0.055 0.30903,0.0508 0.5715,0.1524 0.26247,0.0974 0.48683,0.2413 0.22437,0.1397 0.4191,0.3175 l -0.23283,0.37253 q -0.055,0.0847 -0.14393,0.11007 -0.0847,0.0212 -0.1905,-0.0423 -0.1016,-0.0593 -0.23284,-0.14394 -0.13123,-0.0847 -0.32173,-0.16086 -0.18627,-0.0804 -0.4445,-0.13547 -0.254,-0.055 -0.60537,-0.055 -0.51223,0 -0.9271,0.16933 -0.41486,0.1651 -0.70696,0.47837 -0.2921,0.30903 -0.44874,0.75353 -0.15663,0.44027 -0.15663,0.9906 0,0.5715 0.16087,1.02447 0.1651,0.44873 0.46566,0.76623 0.3048,0.31327 0.7366,0.47837 0.4318,0.1651 0.96944,0.1651 0.21166,0 0.3937,-0.0254 0.18626,-0.0254 0.3556,-0.0677 0.16933,-0.0466 0.32596,-0.11006 0.15664,-0.0677 0.3175,-0.1524 v -1.33774 h -0.94403 q -0.0804,0 -0.13123,-0.0466 -0.0466,-0.0466 -0.0466,-0.1143 v -0.46567 h 1.86267 z" />
    <path
       inkscape:connector-curvature="0"
       id="path1842"
       style="font-style:normal;font-variant:normal;font-weight:normal;font-stretch:normal;font-size:32px;line-height:1.25;font-family:Lato;-inkscape-font-specification:Lato;letter-spacing:0px;word-spacing:0px;fill:#f9f9f9;fill-opacity:1;stroke:none;stroke-width:0.26458332"
       d="m 159.13037,112.25131 v 4.28837 h -0.75353 v -4.28837 z m 0.16087,-1.3462 q 0,0.11007 -0.0466,0.20743 -0.0423,0.0931 -0.11853,0.16934 -0.072,0.072 -0.17357,0.1143 -0.0974,0.0423 -0.20743,0.0423 -0.11007,0 -0.20743,-0.0423 -0.0931,-0.0423 -0.1651,-0.1143 -0.072,-0.0762 -0.1143,-0.16934 -0.0423,-0.0974 -0.0423,-0.20743 0,-0.11007 0.0423,-0.20743 0.0423,-0.1016 0.1143,-0.17357 0.072,-0.0762 0.1651,-0.11853 0.0974,-0.0423 0.20743,-0.0423 0.11007,0 0.20743,0.0423 0.1016,0.0423 0.17357,0.11853 0.0762,0.072 0.11853,0.17357 0.0466,0.0974 0.0466,0.20743 z" />
    <path
       inkscape:connector-curvature="0"
       id="path1844"
       style="font-style:normal;font-variant:normal;font-weight:normal;font-stretch:normal;font-size:32px;line-height:1.25;font-family:Lato;-inkscape-font-specification:Lato;letter-spacing:0px;word-spacing:0px;fill:#f9f9f9;fill-opacity:1;stroke:none;stroke-width:0.26458332"
       d="m 161.68307,116.60741 q -0.508,0 -0.78317,-0.28363 -0.27093,-0.28364 -0.27093,-0.81704 v -2.62466 h -0.51647 q -0.0677,0 -0.1143,-0.0381 -0.0466,-0.0423 -0.0466,-0.127 v -0.30057 l 0.70273,-0.0889 0.17357,-1.32503 q 0.0127,-0.0635 0.055,-0.1016 0.0466,-0.0423 0.11853,-0.0423 h 0.381 v 1.47744 h 1.24037 v 0.5461 h -1.24037 v 2.57386 q 0,0.27094 0.13124,0.40217 0.13123,0.13123 0.33866,0.13123 0.11854,0 0.2032,-0.0296 0.0889,-0.0339 0.1524,-0.072 0.0635,-0.0381 0.10584,-0.0677 0.0466,-0.0339 0.0804,-0.0339 0.0593,0 0.10583,0.072 l 0.22014,0.35983 q -0.19474,0.18204 -0.4699,0.28787 -0.27517,0.1016 -0.56727,0.1016 z" />
    <path
       inkscape:connector-curvature="0"
       id="path1846"
       style="font-style:normal;font-variant:normal;font-weight:normal;font-stretch:normal;font-size:32px;line-height:1.25;font-family:Lato;-inkscape-font-specification:Lato;letter-spacing:0px;word-spacing:0px;fill:#f9f9f9;fill-opacity:1;stroke:none;stroke-width:0.26458332"
       d="m 167.31763,110.47331 v 0.66887 h -2.91676 v 2.1209 h 2.49343 v 0.66886 h -2.49343 v 2.60774 h -0.82127 v -6.06637 z" />
    <path
       inkscape:connector-curvature="0"
       id="path1848"
       style="font-style:normal;font-variant:normal;font-weight:normal;font-stretch:normal;font-size:32px;line-height:1.25;font-family:Lato;-inkscape-font-specification:Lato;letter-spacing:0px;word-spacing:0px;fill:#f9f9f9;fill-opacity:1;stroke:none;stroke-width:0.26458332"
       d="m 169.57821,112.18358 q 0.38524,0 0.7112,0.13123 0.3302,0.127 0.56727,0.37253 0.2413,0.2413 0.37677,0.60114 0.13546,0.3556 0.13546,0.8128 0,0.1778 -0.0381,0.23706 -0.0381,0.0593 -0.14393,0.0593 h -2.86597 q 0.008,0.4064 0.11007,0.70697 0.1016,0.30056 0.2794,0.50376 0.1778,0.19897 0.42333,0.30057 0.24554,0.0974 0.55034,0.0974 0.28363,0 0.48683,-0.0635 0.20743,-0.0677 0.3556,-0.14394 0.14817,-0.0762 0.24553,-0.1397 0.1016,-0.0677 0.17357,-0.0677 0.0931,0 0.14393,0.072 l 0.21167,0.27516 q -0.1397,0.16934 -0.33443,0.29634 -0.19474,0.12276 -0.4191,0.2032 -0.22014,0.0804 -0.4572,0.11853 -0.23707,0.0423 -0.4699,0.0423 -0.4445,0 -0.82127,-0.14816 -0.37253,-0.1524 -0.6477,-0.44027 -0.27093,-0.2921 -0.42333,-0.71967 -0.1524,-0.42756 -0.1524,-0.98213 0,-0.44873 0.13546,-0.8382 0.1397,-0.38947 0.39794,-0.6731 0.25823,-0.28787 0.63076,-0.44873 0.37254,-0.1651 0.8382,-0.1651 z m 0.0169,0.55456 q -0.5461,0 -0.85937,0.3175 -0.31327,0.31327 -0.38947,0.87207 h 2.34527 q 0,-0.26247 -0.0762,-0.47837 -0.072,-0.22013 -0.2159,-0.37676 -0.1397,-0.16087 -0.3429,-0.24554 -0.2032,-0.0889 -0.46143,-0.0889 z" />
    <path
       inkscape:connector-curvature="0"
       id="path1850"
       style="font-style:normal;font-variant:normal;font-weight:normal;font-stretch:normal;font-size:32px;line-height:1.25;font-family:Lato;-inkscape-font-specification:Lato;letter-spacing:0px;word-spacing:0px;fill:#f9f9f9;fill-opacity:1;stroke:none;stroke-width:0.26458332"
       d="m 175.01804,116.53968 q -0.11006,0 -0.16933,-0.0339 -0.0593,-0.0381 -0.0931,-0.14393 l -0.0847,-0.40217 q -0.16933,0.1524 -0.33443,0.27517 -0.16087,0.11853 -0.33867,0.2032 -0.17357,0.0804 -0.37677,0.12276 -0.19896,0.0466 -0.4445,0.0466 -0.24976,0 -0.4699,-0.0677 -0.22013,-0.072 -0.38523,-0.21167 -0.16087,-0.1397 -0.25823,-0.35136 -0.0931,-0.21591 -0.0931,-0.50801 0,-0.254 0.1397,-0.48683 0.1397,-0.23707 0.45297,-0.4191 0.31327,-0.18203 0.81703,-0.29633 0.50377,-0.11854 1.23614,-0.13547 v -0.33443 q 0,-0.49954 -0.2159,-0.75354 -0.2159,-0.25823 -0.63077,-0.25823 -0.2794,0 -0.4699,0.072 -0.18627,0.0677 -0.32597,0.15663 -0.13546,0.0847 -0.23706,0.15663 -0.0974,0.0677 -0.19474,0.0677 -0.0762,0 -0.13123,-0.0381 -0.055,-0.0423 -0.0931,-0.1016 l -0.13547,-0.2413 q 0.3556,-0.3429 0.76623,-0.51224 0.41064,-0.16933 0.91017,-0.16933 0.35983,0 0.63923,0.11853 0.2794,0.11854 0.4699,0.3302 0.1905,0.21167 0.28787,0.51224 0.0974,0.30056 0.0974,0.6604 v 2.7432 z m -1.61713,-0.46144 q 0.19897,0 0.36407,-0.0381 0.1651,-0.0423 0.30903,-0.1143 0.14817,-0.0762 0.2794,-0.18203 0.13547,-0.11007 0.26247,-0.24553 v -0.889 q -0.5207,0.0169 -0.889,0.0847 -0.36407,0.0635 -0.5969,0.16934 -0.2286,0.10583 -0.33444,0.24976 -0.1016,0.14394 -0.1016,0.32174 0,0.16933 0.055,0.2921 0.055,0.12276 0.14816,0.2032 0.0974,0.0762 0.22437,0.1143 0.13123,0.0339 0.2794,0.0339 z" />
    <path
       inkscape:connector-curvature="0"
       id="path1852"
       style="font-style:normal;font-variant:normal;font-weight:normal;font-stretch:normal;font-size:32px;line-height:1.25;font-family:Lato;-inkscape-font-specification:Lato;letter-spacing:0px;word-spacing:0px;fill:#f9f9f9;fill-opacity:1;stroke:none;stroke-width:0.26458332"
       d="m 177.76124,116.60741 q -0.508,0 -0.78317,-0.28363 -0.27093,-0.28364 -0.27093,-0.81704 v -2.62466 h -0.51647 q -0.0677,0 -0.1143,-0.0381 -0.0466,-0.0423 -0.0466,-0.127 v -0.30057 l 0.70273,-0.0889 0.17357,-1.32503 q 0.0127,-0.0635 0.055,-0.1016 0.0466,-0.0423 0.11853,-0.0423 h 0.381 v 1.47744 h 1.24037 v 0.5461 h -1.24037 v 2.57386 q 0,0.27094 0.13124,0.40217 0.13123,0.13123 0.33866,0.13123 0.11854,0 0.2032,-0.0296 0.0889,-0.0339 0.1524,-0.072 0.0635,-0.0381 0.10584,-0.0677 0.0466,-0.0339 0.0804,-0.0339 0.0593,0 0.10583,0.072 l 0.22014,0.35983 q -0.19474,0.18204 -0.4699,0.28787 -0.27517,0.1016 -0.56727,0.1016 z" />
    <path
       inkscape:connector-curvature="0"
       id="path1854"
       style="font-style:normal;font-variant:normal;font-weight:normal;font-stretch:normal;font-size:32px;line-height:1.25;font-family:Lato;-inkscape-font-specification:Lato;letter-spacing:0px;word-spacing:0px;fill:#f9f9f9;fill-opacity:1;stroke:none;stroke-width:0.26458332"
       d="m 180.19117,112.25131 v 2.73473 q 0,0.48684 0.22013,0.75354 0.22437,0.2667 0.68157,0.2667 0.3302,0 0.6223,-0.15664 0.2921,-0.15663 0.53763,-0.43603 v -3.1623 h 0.75353 v 4.28837 h -0.44873 q -0.16087,0 -0.2032,-0.15664 l -0.0593,-0.46143 q -0.2794,0.30903 -0.62653,0.49953 -0.34713,0.18627 -0.79587,0.18627 -0.35136,0 -0.6223,-0.1143 -0.2667,-0.11853 -0.44873,-0.3302 -0.18203,-0.21167 -0.27517,-0.51223 -0.0889,-0.30057 -0.0889,-0.66464 v -2.73473 z" />
    <path
       inkscape:connector-curvature="0"
       id="path1856"
       style="font-style:normal;font-variant:normal;font-weight:normal;font-stretch:normal;font-size:32px;line-height:1.25;font-family:Lato;-inkscape-font-specification:Lato;letter-spacing:0px;word-spacing:0px;fill:#f9f9f9;fill-opacity:1;stroke:none;stroke-width:0.26458332"
       d="m 184.20013,116.53968 v -4.28837 h 0.4318 q 0.12276,0 0.16933,0.0466 0.0466,0.0466 0.0635,0.16086 l 0.0466,0.65194 q 0.2032,-0.44027 0.49953,-0.6858 0.30057,-0.24977 0.72813,-0.24977 0.13547,0 0.25824,0.0296 0.127,0.0296 0.22436,0.0931 l -0.055,0.56303 q -0.0254,0.10583 -0.127,0.10583 -0.0593,0 -0.17357,-0.0254 -0.1143,-0.0254 -0.25823,-0.0254 -0.2032,0 -0.36407,0.0635 -0.16086,0.0593 -0.28786,0.1778 -0.12277,0.1143 -0.22014,0.28364 -0.0974,0.16933 -0.1778,0.38946 v 2.70934 z" />
    <path
       inkscape:connector-curvature="0"
       id="path1858"
       style="font-style:normal;font-variant:normal;font-weight:normal;font-stretch:normal;font-size:32px;line-height:1.25;font-family:Lato;-inkscape-font-specification:Lato;letter-spacing:0px;word-spacing:0px;fill:#f9f9f9;fill-opacity:1;stroke:none;stroke-width:0.26458332"
       d="m 188.86524,112.18358 q 0.38524,0 0.7112,0.13123 0.3302,0.127 0.56727,0.37253 0.2413,0.2413 0.37677,0.60114 0.13546,0.3556 0.13546,0.8128 0,0.1778 -0.0381,0.23706 -0.0381,0.0593 -0.14393,0.0593 h -2.86597 q 0.008,0.4064 0.11007,0.70697 0.1016,0.30056 0.2794,0.50376 0.1778,0.19897 0.42333,0.30057 0.24554,0.0974 0.55034,0.0974 0.28363,0 0.48683,-0.0635 0.20743,-0.0677 0.3556,-0.14394 0.14817,-0.0762 0.24553,-0.1397 0.1016,-0.0677 0.17357,-0.0677 0.0931,0 0.14393,0.072 l 0.21167,0.27516 q -0.1397,0.16934 -0.33443,0.29634 -0.19474,0.12276 -0.4191,0.2032 -0.22014,0.0804 -0.4572,0.11853 -0.23707,0.0423 -0.4699,0.0423 -0.4445,0 -0.82127,-0.14816 -0.37253,-0.1524 -0.6477,-0.44027 -0.27093,-0.2921 -0.42333,-0.71967 -0.1524,-0.42756 -0.1524,-0.98213 0,-0.44873 0.13546,-0.8382 0.1397,-0.38947 0.39794,-0.6731 0.25823,-0.28787 0.63076,-0.44873 0.37254,-0.1651 0.8382,-0.1651 z m 0.0169,0.55456 q -0.5461,0 -0.85937,0.3175 -0.31327,0.31327 -0.38947,0.87207 h 2.34527 q 0,-0.26247 -0.0762,-0.47837 -0.072,-0.22013 -0.2159,-0.37676 -0.1397,-0.16087 -0.3429,-0.24554 -0.2032,-0.0889 -0.46143,-0.0889 z" />
    <path
       inkscape:connector-curvature="0"
       id="path1860"
       style="font-style:normal;font-variant:normal;font-weight:normal;font-stretch:normal;font-size:32px;line-height:1.25;font-family:Lato;-inkscape-font-specification:Lato;letter-spacing:0px;word-spacing:0px;fill:#f9f9f9;fill-opacity:1;stroke:none;stroke-width:0.26458332"
       d="m 194.07648,112.95828 q -0.0508,0.0931 -0.15664,0.0931 -0.0635,0 -0.14393,-0.0466 -0.0804,-0.0466 -0.19897,-0.1016 -0.1143,-0.0593 -0.27516,-0.10583 -0.16087,-0.0508 -0.381,-0.0508 -0.1905,0 -0.3429,0.0508 -0.1524,0.0466 -0.26247,0.13123 -0.10583,0.0847 -0.1651,0.19897 -0.055,0.11007 -0.055,0.2413 0,0.1651 0.0931,0.27517 0.0974,0.11006 0.254,0.1905 0.15663,0.0804 0.3556,0.14393 0.19897,0.0593 0.4064,0.13123 0.21167,0.0677 0.41063,0.1524 0.19897,0.0847 0.3556,0.21167 0.15664,0.127 0.24977,0.31327 0.0974,0.18203 0.0974,0.44026 0,0.29634 -0.10584,0.55034 -0.10583,0.24976 -0.31326,0.43603 -0.20744,0.18203 -0.508,0.28787 -0.30057,0.10583 -0.69427,0.10583 -0.44873,0 -0.8128,-0.14393 -0.36407,-0.14817 -0.61807,-0.37677 l 0.1778,-0.28787 q 0.0339,-0.055 0.0804,-0.0847 0.0466,-0.0296 0.11853,-0.0296 0.0762,0 0.16087,0.0593 0.0847,0.0593 0.2032,0.13123 0.12276,0.072 0.29633,0.13124 0.17357,0.0593 0.4318,0.0593 0.22013,0 0.38523,-0.055 0.1651,-0.0593 0.27517,-0.15663 0.11007,-0.0974 0.16087,-0.22437 0.055,-0.127 0.055,-0.27093 0,-0.1778 -0.0974,-0.2921 -0.0931,-0.11854 -0.24976,-0.19897 -0.15664,-0.0847 -0.35984,-0.14393 -0.19896,-0.0635 -0.41063,-0.13124 -0.20743,-0.0677 -0.41063,-0.1524 -0.19897,-0.0889 -0.3556,-0.22013 -0.15664,-0.13123 -0.254,-0.32173 -0.0931,-0.19474 -0.0931,-0.4699 0,-0.24554 0.1016,-0.4699 0.1016,-0.2286 0.29634,-0.39794 0.19473,-0.17356 0.47836,-0.27516 0.28364,-0.1016 0.6477,-0.1016 0.42334,0 0.75777,0.13546 0.33867,0.13124 0.5842,0.36407 z" />
  </g>
</svg>
