<?xml version="1.0" encoding="UTF-8" standalone="no"?>
<svg
   xmlns:dc="http://purl.org/dc/elements/1.1/"
   xmlns:cc="http://creativecommons.org/ns#"
   xmlns:rdf="http://www.w3.org/1999/02/22-rdf-syntax-ns#"
   xmlns:svg="http://www.w3.org/2000/svg"
   xmlns="http://www.w3.org/2000/svg"
   xmlns:sodipodi="http://sodipodi.sourceforge.net/DTD/sodipodi-0.dtd"
   xmlns:inkscape="http://www.inkscape.org/namespaces/inkscape"
   width="222"
   height="50"
   viewBox="0 0 58.737502 13.229166"
   version="1.1"
   id="svg1180"
   inkscape:version="0.92.5 (2060ec1f9f, 2020-04-08)"
   sodipodi:docname="logo.svg">
  <defs
     id="defs1174">
    <rect
       x="142.75887"
       y="125.99912"
       width="143.44196"
       height="38.364582"
       id="rect936" />
    <rect
       x="123.28034"
       y="138.08029"
       width="22.016327"
       height="11.125094"
       id="rect930" />
    <marker
       style="overflow:visible"
       id="StopS"
       refX="0"
       refY="0"
       orient="auto"
       inkscape:stockid="StopS"
       inkscape:isstock="true">
      <path
         transform="scale(0.2)"
         style="fill:none;fill-opacity:0.75;fill-rule:evenodd;stroke:#000000;stroke-width:1.00000003pt;stroke-opacity:1"
         d="M 0,5.65 V -5.65"
         id="path1494"
         inkscape:connector-curvature="0" />
    </marker>
    <marker
       style="overflow:visible"
       id="Arrow2Mend"
       refX="0"
       refY="0"
       orient="auto"
       inkscape:stockid="Arrow2Mend"
       inkscape:isstock="true">
      <path
         transform="scale(-0.6)"
         d="M 8.7185878,4.0337352 -2.2072895,0.01601326 8.7185884,-4.0017078 c -1.7454984,2.3720609 -1.7354408,5.6174519 -6e-7,8.035443 z"
         style="fill:#000000;fill-opacity:1;fill-rule:evenodd;stroke:#000000;stroke-width:0.625;stroke-linejoin:round;stroke-opacity:1"
         id="path1346"
         inkscape:connector-curvature="0" />
    </marker>
    <marker
       style="overflow:visible"
       id="DotM"
       refX="0"
       refY="0"
       orient="auto"
       inkscape:stockid="DotM"
       inkscape:isstock="true">
      <path
         transform="matrix(0.4,0,0,0.4,2.96,0.4)"
         style="fill:#000000;fill-opacity:1;fill-rule:evenodd;stroke:#000000;stroke-width:1.00000003pt;stroke-opacity:1"
         d="m -2.5,-1 c 0,2.76 -2.24,5 -5,5 -2.76,0 -5,-2.24 -5,-5 0,-2.76 2.24,-5 5,-5 2.76,0 5,2.24 5,5 z"
         id="path1383"
         inkscape:connector-curvature="0" />
    </marker>
    <marker
       style="overflow:visible"
       id="EmptyDiamondSstart"
       refX="0"
       refY="0"
       orient="auto"
       inkscape:stockid="EmptyDiamondSstart"
       inkscape:isstock="true">
      <path
         transform="matrix(0.2,0,0,0.2,1.2,0)"
         style="fill:#ffffff;fill-rule:evenodd;stroke:#000000;stroke-width:1.00000003pt;stroke-opacity:1"
         d="M 0,-7.0710768 -7.0710894,0 0,7.0710589 7.0710462,0 Z"
         id="path1440"
         inkscape:connector-curvature="0" />
    </marker>
    <marker
       style="overflow:visible"
       id="EmptyDiamondLstart"
       refX="0"
       refY="0"
       orient="auto"
       inkscape:stockid="EmptyDiamondLstart"
       inkscape:isstock="true">
      <path
         transform="matrix(0.8,0,0,0.8,5.6,0)"
         style="fill:#ffffff;fill-rule:evenodd;stroke:#000000;stroke-width:1.00000003pt;stroke-opacity:1"
         d="M 0,-7.0710768 -7.0710894,0 0,7.0710589 7.0710462,0 Z"
         id="path1434"
         inkscape:connector-curvature="0" />
    </marker>
    <marker
       style="overflow:visible"
       id="Arrow1Mend"
       refX="0"
       refY="0"
       orient="auto"
       inkscape:stockid="Arrow1Mend"
       inkscape:isstock="true">
      <path
         transform="matrix(-0.4,0,0,-0.4,-4,0)"
         style="fill:#000000;fill-opacity:1;fill-rule:evenodd;stroke:#000000;stroke-width:1.00000003pt;stroke-opacity:1"
         d="M 0,0 5,-5 -12.5,0 5,5 Z"
         id="path1328"
         inkscape:connector-curvature="0" />
    </marker>
    <marker
       style="overflow:visible"
       id="Arrow1Lend"
       refX="0"
       refY="0"
       orient="auto"
       inkscape:stockid="Arrow1Lend"
       inkscape:isstock="true">
      <path
         transform="matrix(-0.8,0,0,-0.8,-10,0)"
         style="fill:#000000;fill-opacity:1;fill-rule:evenodd;stroke:#000000;stroke-width:1.00000003pt;stroke-opacity:1"
         d="M 0,0 5,-5 -12.5,0 5,5 Z"
         id="path1322"
         inkscape:connector-curvature="0" />
    </marker>
    <inkscape:perspective
       sodipodi:type="inkscape:persp3d"
       inkscape:vp_x="3.085925 : 7.5580863e-16 : 0"
       inkscape:vp_y="-1.0024249e-13 : 545.71269 : 0"
       inkscape:vp_z="4.3163496 : 52.015888 : 1"
       inkscape:persp3d-origin="2.3766922 : 50.188571 : 1"
       id="perspective1042" />
  </defs>
  <sodipodi:namedview
     id="base"
     pagecolor="#ffffff"
     bordercolor="#666666"
     borderopacity="1.0"
     inkscape:pageopacity="0.0"
     inkscape:pageshadow="2"
     inkscape:zoom="11.313708"
     inkscape:cx="36.588455"
     inkscape:cy="20.165036"
     inkscape:document-units="mm"
     inkscape:current-layer="layer1"
     showgrid="false"
     fit-margin-top="0"
     fit-margin-left="0"
     fit-margin-right="0"
     fit-margin-bottom="0"
     inkscape:window-width="2498"
     inkscape:window-height="1016"
     inkscape:window-x="1982"
     inkscape:window-y="27"
     inkscape:window-maximized="1"
     units="px"
     inkscape:document-rotation="0" />
  <metadata
     id="metadata1177">
    <rdf:RDF>
      <cc:Work
         rdf:about="">
        <dc:format>image/svg+xml</dc:format>
        <dc:type
           rdf:resource="http://purl.org/dc/dcmitype/StillImage" />
        <dc:title></dc:title>
      </cc:Work>
    </rdf:RDF>
  </metadata>
  <g
     inkscape:label="Layer 1"
     inkscape:groupmode="layer"
     id="layer1"
     transform="translate(-135.65292,-106.60618)">
    <flowRoot
       xml:space="preserve"
       id="flowRoot821"
       style="font-style:normal;font-weight:normal;font-size:40px;line-height:1.25;font-family:sans-serif;letter-spacing:0px;word-spacing:0px;fill:#000000;fill-opacity:1;stroke:none"
       transform="matrix(0.26458333,0,0,0.26458333,106.95109,131.54834)"><flowRegion
         id="flowRegion823"><rect
           id="rect825"
           width="107.85714"
           height="70"
           x="18.928572"
           y="-8.9821386" /></flowRegion><flowPara
         id="flowPara827" /></flowRoot>    <g
       transform="matrix(0.01538545,0,0,0.01538545,107.99775,134.63979)"
       id="g1098"
       style="font-style:normal;font-weight:normal;font-size:40px;line-height:1.25;font-family:sans-serif;letter-spacing:0px;word-spacing:0px;fill:#000000;fill-opacity:1;stroke:none">
      <g
         id="g1096" />
    </g>
    <g
       transform="matrix(0.01538545,0,0,0.01538545,107.99775,134.63979)"
       id="g1104"
       style="font-style:normal;font-weight:normal;font-size:40px;line-height:1.25;font-family:sans-serif;letter-spacing:0px;word-spacing:0px;fill:#000000;fill-opacity:1;stroke:none">
      <g
         id="g1102" />
    </g>
    <g
       transform="matrix(0.01538545,0,0,0.01538545,107.99775,134.63979)"
       id="g1110"
       style="font-style:normal;font-weight:normal;font-size:40px;line-height:1.25;font-family:sans-serif;letter-spacing:0px;word-spacing:0px;fill:#000000;fill-opacity:1;stroke:none">
      <g
         id="g1108" />
    </g>
    <g
       transform="matrix(0.01538545,0,0,0.01538545,107.99775,134.63979)"
       id="g1116"
       style="font-style:normal;font-weight:normal;font-size:40px;line-height:1.25;font-family:sans-serif;letter-spacing:0px;word-spacing:0px;fill:#112b00;fill-opacity:1;stroke:none">
      <g
         id="g1114"
         style="fill:#112b00" />
    </g>
    <g
       transform="matrix(0.01538545,0,0,0.01538545,107.99775,134.63979)"
       id="g1122"
       style="font-style:normal;font-weight:normal;font-size:40px;line-height:1.25;font-family:sans-serif;letter-spacing:0px;word-spacing:0px;fill:#000000;fill-opacity:1;stroke:none">
      <g
         id="g1120" />
    </g>
    <g
       transform="matrix(0.01538545,0,0,0.01538545,107.99775,134.63979)"
       id="g1128"
       style="font-style:normal;font-weight:normal;font-size:40px;line-height:1.25;font-family:sans-serif;letter-spacing:0px;word-spacing:0px;fill:#000000;fill-opacity:1;stroke:none">
      <g
         id="g1126" />
    </g>
    <g
       transform="matrix(0.01538545,0,0,0.01538545,107.99775,134.63979)"
       id="g1134"
       style="font-style:normal;font-weight:normal;font-size:40px;line-height:1.25;font-family:sans-serif;letter-spacing:0px;word-spacing:0px;fill:#000000;fill-opacity:1;stroke:none">
      <g
         id="g1132" />
    </g>
    <g
       transform="matrix(0.01538545,0,0,0.01538545,107.99775,134.63979)"
       id="g1140"
       style="font-style:normal;font-weight:normal;font-size:40px;line-height:1.25;font-family:sans-serif;letter-spacing:0px;word-spacing:0px;fill:#000000;fill-opacity:1;stroke:none">
      <g
         id="g1138" />
    </g>
    <g
       transform="matrix(0.01538545,0,0,0.01538545,107.99775,134.63979)"
       id="g1146"
       style="font-style:normal;font-weight:normal;font-size:40px;line-height:1.25;font-family:sans-serif;letter-spacing:0px;word-spacing:0px;fill:#000000;fill-opacity:1;stroke:none">
      <g
         id="g1144" />
    </g>
    <g
       transform="matrix(0.01538545,0,0,0.01538545,107.99775,134.63979)"
       id="g1152"
       style="font-style:normal;font-weight:normal;font-size:40px;line-height:1.25;font-family:sans-serif;letter-spacing:0px;word-spacing:0px;fill:#000000;fill-opacity:1;stroke:none">
      <g
         id="g1150" />
    </g>
    <g
       transform="matrix(0.01538545,0,0,0.01538545,107.99775,134.63979)"
       id="g1158"
       style="font-style:normal;font-weight:normal;font-size:40px;line-height:1.25;font-family:sans-serif;letter-spacing:0px;word-spacing:0px;fill:#000000;fill-opacity:1;stroke:none">
      <g
         id="g1156" />
    </g>
    <g
       transform="matrix(0.01538545,0,0,0.01538545,107.99775,134.63979)"
       id="g1164"
       style="font-style:normal;font-weight:normal;font-size:40px;line-height:1.25;font-family:sans-serif;letter-spacing:0px;word-spacing:0px;fill:#000000;fill-opacity:1;stroke:none">
      <g
         id="g1162" />
    </g>
    <g
       transform="matrix(0.01538545,0,0,0.01538545,107.99775,134.63979)"
       id="g1170"
       style="font-style:normal;font-weight:normal;font-size:40px;line-height:1.25;font-family:sans-serif;letter-spacing:0px;word-spacing:0px;fill:#000000;fill-opacity:1;stroke:none">
      <g
         id="g1168" />
    </g>
    <text
       xml:space="preserve"
       id="text928"
       style="font-style:normal;font-weight:normal;font-size:10.58329964px;line-height:1.25;font-family:sans-serif;white-space:pre;shape-inside:url(#rect930);fill:#000000;fill-opacity:1;stroke:none" />
    <circle
       style="fill:#00ffff;stroke-width:1.07950199;stroke-linecap:round"
       id="path946-8-3"
       cx="142.00293"
       cy="113.48534"
       r="5.7150154" />
    <ellipse
       style="fill:#ccff00;stroke-width:1.07950199;stroke-linecap:round"
       id="path946-8-8-6"
       cx="142.00293"
       cy="113.48534"
       rx="1.905005"
       ry="1.9050049" />
    <path
       inkscape:connector-curvature="0"
       id="rect1943-7"
       style="fill:#333333;fill-opacity:1;stroke:none;stroke-width:1.07950199;stroke-linecap:round;stroke-linejoin:miter;stroke-miterlimit:4;stroke-dasharray:none;stroke-dashoffset:0"
       d="m 142.00292,107.13531 c -3.51792,0 -6.35,2.8321 -6.35,6.35002 0,3.51792 2.83208,6.35002 6.35,6.35002 3.51792,0 6.35,-2.8321 6.35,-6.35002 0,-3.51792 -2.83208,-6.35002 -6.35,-6.35002 z m -0.98722,1.26504 h 10e-4 a 0.57150148,0.57150148 0 0 1 0.57548,0.44154 0.57150148,0.57150148 0 0 1 -0.42664,0.6883 l -0.1636,0.0372 -0.1872,0.0522 c -0.1862,0.0578 -0.36854,0.1312 -0.54444,0.21578 -0.1742,0.0838 -0.34594,0.177 -0.50604,0.28526 -0.1374,0.0942 -0.26252,0.1902 -0.36958,0.28648 a 0.57150148,0.57150148 0 0 1 -0.80738,-0.0422 0.57150148,0.57150148 0 0 1 0.0472,-0.80614 c 0.1628,-0.1462 0.32662,-0.26936 0.48742,-0.3795 h 0.004 v -0.004 c 0.20598,-0.1392 0.42326,-0.26282 0.64742,-0.37082 0.22656,-0.109 0.45812,-0.20182 0.69826,-0.27658 h 0.008 l 0.23446,-0.071 0.1922,-0.0422 a 0.57150148,0.57150148 0 0 1 0.1064,-0.016 z m 2.24608,0.0832 a 0.57150148,0.57150148 0 0 1 0.1922,0.0246 l 0.0794,0.02 0.22942,0.0794 0.008,0.004 c 0.2352,0.0862 0.46478,0.1854 0.68462,0.3051 0.21796,0.1182 0.42534,0.25452 0.62382,0.40308 0.1978,0.148 0.38238,0.30796 0.55688,0.48244 l 0.004,0.004 0.016,0.016 a 0.57150148,0.57150148 0 0 1 -0.02,0.80616 0.57150148,0.57150148 0 0 1 -0.80618,-0.016 l -0.004,-0.004 -0.004,-0.004 c -0.133,-0.1326 -0.27488,-0.25826 -0.42536,-0.37082 -0.1546,-0.1154 -0.31922,-0.21818 -0.48866,-0.31006 -0.1664,-0.0906 -0.33712,-0.1686 -0.51472,-0.2345 l -0.20204,-0.0694 -0.0472,-0.016 a 0.57150148,0.57150148 0 0 1 -0.39314,-0.70322 0.57150148,0.57150148 0 0 1 0.51098,-0.41672 z m -2.03894,1.63218 a 0.48577684,0.48577684 0 0 1 0.47376,0.35224 0.48577684,0.48577684 0 0 1 -0.33238,0.60026 l -0.016,0.004 -0.016,0.004 c -0.1054,0.0336 -0.20902,0.0748 -0.30884,0.1228 -0.1326,0.064 -0.25682,0.1396 -0.37084,0.22442 a 0.48577684,0.48577684 0 0 1 -0.67966,-0.098 0.48577684,0.48577684 0 0 1 0.099,-0.67966 c 0.1676,-0.1246 0.34648,-0.23016 0.52962,-0.31874 0.147,-0.0712 0.29792,-0.135 0.45392,-0.1834 h 0.008 l 0.0286,-0.008 a 0.48577684,0.48577684 0 0 1 0.1266,-0.02 z m 1.91242,0.0892 a 0.48577684,0.48577684 0 0 1 0.1774,0.0374 l 0.0372,0.016 h 0.004 c 0.1496,0.063 0.29312,0.14 0.43162,0.2244 0.1374,0.0836 0.26906,0.1744 0.39316,0.27658 l 0.004,0.004 0.0844,0.0744 a 0.48577684,0.48577684 0 0 1 0.0522,0.6846 0.48577684,0.48577684 0 0 1 -0.68462,0.0522 l -0.0744,-0.0656 c -0.088,-0.0726 -0.1792,-0.138 -0.27652,-0.1972 -0.094,-0.0572 -0.1942,-0.1116 -0.29518,-0.1552 l -0.0336,-0.016 a 0.48577684,0.48577684 0 0 1 -0.27658,-0.6288 0.48577684,0.48577684 0 0 1 0.45516,-0.30884 z m -5.39626,1.05792 a 0.57150148,0.57150148 0 0 1 0.1922,0.0434 0.57150148,0.57150148 0 0 1 0.31874,0.74042 l -0.004,0.02 -0.0656,0.1834 -0.0508,0.1922 -0.0472,0.1922 -0.0336,0.196 -0.0274,0.20204 -0.016,0.20094 -0.004,0.20706 c 0,0.002 -2e-5,0.002 0,0.004 v 0.008 c 9.4e-4,0.1878 0.016,0.37202 0.0422,0.54816 a 0.57150148,0.57150148 0 0 1 -0.48244,0.65236 0.57150148,0.57150148 0 0 1 -0.65114,-0.48246 c -0.037,-0.24674 -0.0518,-0.48796 -0.0522,-0.72678 v -0.008 l 0.008,-0.25798 0.02,-0.26294 0.0334,-0.25672 0.0422,-0.25424 0.0606,-0.24804 0.0704,-0.2431 0.0794,-0.23928 0.02,-0.0472 a 0.57150148,0.57150148 0 0 1 0.5494,-0.3609 z m 8.62086,0.32618 a 0.57150148,0.57150148 0 0 1 0.57674,0.40556 c 0.069,0.2244 0.116,0.44624 0.15,0.66106 v 0.008 l 0.0334,0.24806 0.02,0.26292 0.008,0.24806 a 0.57150148,0.57150148 0 0 1 0,0.016 0.57150148,0.57150148 0 0 1 0,0.004 0.57150148,0.57150148 0 0 1 0,0.008 l -0.008,0.25298 -0.02,0.25798 -0.0334,0.25796 -0.0422,0.25302 -0.0606,0.24804 -0.0706,0.24928 -0.0744,0.22944 -0.004,0.008 c -0.0862,0.2352 -0.1894,0.4598 -0.30882,0.67966 v 0.008 l -0.016,0.02 a 0.57150148,0.57150148 0 0 1 -0.77764,0.21098 0.57150148,0.57150148 0 0 1 -0.21078,-0.7826 l 0.004,-0.016 c 0.0874,-0.1626 0.1664,-0.32822 0.23064,-0.50102 l 0.0694,-0.20204 0.0522,-0.1872 0.0472,-0.1972 0.0322,-0.196 0.0246,-0.1972 0.02,-0.20598 0.004,-0.1922 v -0.0286 a 0.57150148,0.57150148 0 0 1 0,-0.008 l -0.004,-0.1824 -0.02,-0.20204 -0.0246,-0.196 c -0.0282,-0.1782 -0.0648,-0.35104 -0.1128,-0.50728 a 0.57150148,0.57150148 0 0 1 0.38076,-0.7119 0.57150148,0.57150148 0 0 1 0.108,-0.024 v -10e-4 a 0.57150148,0.57150148 0 0 1 0.0272,-0.002 z m -4.40654,0.25674 c 0.84748,0 1.54286,0.69416 1.54286,1.54162 0,0.84746 -0.69538,1.54656 -1.54286,1.54656 -0.84748,0 -1.54658,-0.6991 -1.54658,-1.54656 0,-0.84746 0.6991,-1.54162 1.54658,-1.54162 z m -2.66776,0.2778 a 0.48577684,0.48577684 0 0 1 0.1376,0.018 0.48577684,0.48577684 0 0 1 0.33734,0.59904 l -0.004,0.004 -0.0246,0.1128 -0.024,0.1178 -0.016,0.1218 -0.008,0.1168 c -1.6e-4,0.004 1.4e-4,0.006 0,0.008 v 0.004 c -0.004,0.1062 -0.004,0.20444 0.004,0.29518 a 0.48577684,0.48577684 0 0 1 -0.4353,0.52956 0.48577684,0.48577684 0 0 1 -0.5296,-0.43532 c -0.016,-0.1574 -0.018,-0.3086 -0.008,-0.4502 v -0.004 l 0.016,-0.1636 0.02,-0.17 0.0336,-0.1636 0.037,-0.1636 0.004,-0.0286 a 0.48577684,0.48577684 0 0 1 0.4217,-0.34724 h 0.001 a 0.48577684,0.48577684 0 0 1 0.0394,-0.002 z m 5.56494,0.26418 a 0.48577684,0.48577684 0 0 1 0.50108,0.40058 l 0.004,0.0422 0.024,0.1686 0.016,0.1686 0.004,0.1586 a 0.48577684,0.48577684 0 0 1 0,0.008 0.48577684,0.48577684 0 0 1 0,0.016 l -0.004,0.1586 -0.016,0.1686 -0.024,0.1686 -0.0286,0.165 -0.037,0.1636 -0.0422,0.16 -0.0422,0.1114 a 0.48577684,0.48577684 0 0 1 -0.61392,0.30512 0.48577684,0.48577684 0 0 1 -0.30508,-0.61394 l 0.0336,-0.0942 0.0274,-0.1128 0.0286,-0.1114 0.02,-0.1178 0.02,-0.1216 0.008,-0.1178 v -0.1116 -0.0246 -0.1114 l -0.008,-0.1178 -0.02,-0.1218 v -0.016 a 0.48577684,0.48577684 0 0 1 0.39318,-0.56676 0.48577684,0.48577684 0 0 1 0.0322,-0.004 0.48577684,0.48577684 0 0 1 0.0286,-10e-4 z m -2.89718,0.2592 c -0.41506,0 -0.74538,0.32538 -0.74538,0.74044 0,0.41506 0.33032,0.74536 0.74538,0.74536 0.41506,0 0.74168,-0.3303 0.74168,-0.74536 0,-0.41506 -0.32662,-0.74044 -0.74168,-0.74044 z m -1.99432,2.17662 a 0.48577684,0.48577684 0 0 1 0.37704,0.1528 l 0.0422,0.0372 0.0892,0.0892 c 0.0808,0.0724 0.1682,0.1414 0.25794,0.20204 h 0.004 c 0.0856,0.0572 0.1652,0.1074 0.24312,0.145 a 0.48577684,0.48577684 0 0 1 0.2256,0.65114 0.48577684,0.48577684 0 0 1 -0.65238,0.2208 c -0.1336,-0.065 -0.25122,-0.1374 -0.36092,-0.21078 -0.1332,-0.0898 -0.26072,-0.192 -0.37952,-0.30012 h -0.004 l -0.1128,-0.1082 -0.056,-0.056 a 0.48577684,0.48577684 0 0 1 0.02,-0.68956 0.48577684,0.48577684 0 0 1 0.27164,-0.1316 0.48577684,0.48577684 0 0 1 0.0348,-0.002 z m 3.5657,0.46384 a 0.48577684,0.48577684 0 0 1 0.43656,0.2232 0.48577684,0.48577684 0 0 1 -0.15,0.66972 l -0.02,0.016 h -0.004 c -0.1386,0.084 -0.28086,0.1612 -0.43038,0.22438 h -0.004 l -0.1454,0.0572 -0.16,0.0558 -0.1552,0.0422 -0.1304,0.0322 a 0.48577684,0.48577684 0 0 1 -0.58168,-0.36462 0.48577684,0.48577684 0 0 1 0.36586,-0.58164 l 0.103,-0.0286 0.1128,-0.0274 0.1082,-0.0372 0.1064,-0.0434 c 0.1056,-0.0448 0.21186,-0.0988 0.31006,-0.1586 a 0.48577684,0.48577684 0 0 1 0.20596,-0.0744 l 0.001,-10e-4 a 0.48577684,0.48577684 0 0 1 0.0322,-0.002 z m -5.21274,0.3175 a 0.57150148,0.57150148 0 0 1 0.0508,0 0.57150148,0.57150148 0 0 1 0.42668,0.22082 l 0.1266,0.1586 0.1266,0.1454 c 0.002,0.002 0.006,0.002 0.008,0.004 v 0.004 c 0.1268,0.1386 0.2633,0.26994 0.40802,0.38946 0.1478,0.122 0.30066,0.23304 0.46386,0.33236 h 0.004 c 0.1416,0.0842 0.27282,0.1564 0.3981,0.21098 a 0.57150148,0.57150148 0 0 1 0.30014,0.75528 0.57150148,0.57150148 0 0 1 -0.75406,0.29516 c -0.198,-0.0856 -0.37422,-0.186 -0.53454,-0.28154 h -0.004 c -0.21142,-0.1288 -0.41444,-0.27412 -0.60524,-0.43158 -0.1902,-0.157 -0.36846,-0.32834 -0.53454,-0.51098 l -0.004,-0.004 -0.154,-0.1824 -0.145,-0.1824 a 0.57150148,0.57150148 0 0 1 0.098,-0.80244 0.57150148,0.57150148 0 0 1 0.3237,-0.1218 z m 6.16648,1.11004 a 0.57150148,0.57150148 0 0 1 0.47128,0.25422 0.57150148,0.57150148 0 0 1 -0.16,0.79254 c -0.1852,0.1242 -0.37194,0.2251 -0.55312,0.31378 h -0.004 c -0.2263,0.109 -0.45932,0.20182 -0.69948,0.27656 l -0.008,0.004 -0.23448,0.0656 -0.25422,0.0556 -0.25302,0.0472 -0.25302,0.0322 -0.1586,0.008 a 0.57150148,0.57150148 0 0 1 -0.61388,-0.5246 0.57150148,0.57150148 0 0 1 0.5246,-0.61392 l 0.1314,-0.008 0.20094,-0.024 0.1972,-0.0384 0.1922,-0.0422 0.1872,-0.056 c 0.1862,-0.0582 0.36856,-0.126 0.54448,-0.21076 0.1542,-0.0752 0.2964,-0.1556 0.42168,-0.23928 a 0.57150148,0.57150148 0 0 1 0.28528,-0.0932 h 0.001 a 0.57150148,0.57150148 0 0 1 0.035,-0.001 z" />
    <g
       aria-label="GitFeatures"
       transform="matrix(0.26458333,0,0,0.26458333,112.97435,56.37591)"
       style="font-style:normal;font-weight:normal;font-size:40px;line-height:1.25;font-family:sans-serif;letter-spacing:0px;word-spacing:0px;fill:#333333;fill-opacity:1;stroke:none"
       id="flowRoot1787">
      <path
         d="m 167.552,225.16662 q -1.728,1.248 -3.696,1.872 -1.952,0.608 -4.288,0.608 -2.768,0 -4.992,-0.848 -2.224,-0.864 -3.808,-2.4 -1.568,-1.552 -2.416,-3.712 -0.848,-2.16 -0.848,-4.752 0,-2.624 0.816,-4.784 0.832,-2.16 2.352,-3.696 1.52,-1.552 3.696,-2.4 2.176,-0.848 4.864,-0.848 1.36,0 2.528,0.208 1.168,0.192 2.16,0.576 0.992,0.368 1.84,0.912 0.848,0.528 1.584,1.2 l -0.88,1.408 q -0.208,0.32 -0.544,0.416 -0.32,0.08 -0.72,-0.16 -0.384,-0.224 -0.88,-0.544 -0.496,-0.32 -1.216,-0.608 -0.704,-0.304 -1.68,-0.512 -0.96,-0.208 -2.288,-0.208 -1.936,0 -3.504,0.64 -1.568,0.624 -2.672,1.808 -1.104,1.168 -1.696,2.848 -0.592,1.664 -0.592,3.744 0,2.16 0.608,3.872 0.624,1.696 1.76,2.896 1.152,1.184 2.784,1.808 1.632,0.624 3.664,0.624 0.8,0 1.488,-0.096 0.704,-0.096 1.344,-0.256 0.64,-0.176 1.232,-0.416 0.592,-0.256 1.2,-0.576 v -5.056 h -3.568 q -0.304,0 -0.496,-0.176 -0.176,-0.176 -0.176,-0.432 v -1.76 h 7.04 v 8.8 z"
         style="font-style:normal;font-variant:normal;font-weight:normal;font-stretch:normal;font-size:32px;font-family:Lato;-inkscape-font-specification:Lato;fill:#333333;fill-opacity:1"
         id="path1840" />
      <path
         d="m 174.44796,211.18262 v 16.208 h -2.848 v -16.208 z m 0.608,-5.088 q 0,0.416 -0.176,0.784 -0.16,0.352 -0.448,0.64 -0.272,0.272 -0.656,0.432 -0.368,0.16 -0.784,0.16 -0.416,0 -0.784,-0.16 -0.352,-0.16 -0.624,-0.432 -0.272,-0.288 -0.432,-0.64 -0.16,-0.368 -0.16,-0.784 0,-0.416 0.16,-0.784 0.16,-0.384 0.432,-0.656 0.272,-0.288 0.624,-0.448 0.368,-0.16 0.784,-0.16 0.416,0 0.784,0.16 0.384,0.16 0.656,0.448 0.288,0.272 0.448,0.656 0.176,0.368 0.176,0.784 z"
         style="font-style:normal;font-variant:normal;font-weight:normal;font-stretch:normal;font-size:32px;font-family:Lato;-inkscape-font-specification:Lato;fill:#333333;fill-opacity:1"
         id="path1842" />
      <path
         d="m 184.09595,227.64662 q -1.92,0 -2.96,-1.072 -1.024,-1.072 -1.024,-3.088 v -9.92 h -1.952 q -0.256,0 -0.432,-0.144 -0.176,-0.15999 -0.176,-0.48 v -1.136 l 2.656,-0.336 0.656,-5.008 q 0.048,-0.24 0.208,-0.384 0.176,-0.16 0.448,-0.16 h 1.44 v 5.584 h 4.688 v 2.064 h -4.688 v 9.728 q 0,1.024 0.496,1.52 0.496,0.496 1.28,0.496 0.448,0 0.768,-0.112 0.336,-0.128 0.576,-0.272 0.24,-0.144 0.4,-0.256 0.176,-0.128 0.304,-0.128 0.224,0 0.4,0.272 l 0.832,1.36 q -0.736,0.688 -1.776,1.08801 -1.04,0.38399 -2.144,0.38399 z"
         style="font-style:normal;font-variant:normal;font-weight:normal;font-stretch:normal;font-size:32px;font-family:Lato;-inkscape-font-specification:Lato;fill:#333333;fill-opacity:1"
         id="path1844" />
      <path
         d="m 205.39194,204.46262 v 2.528 h -11.024 v 8.016 h 9.424 v 2.528 h -9.424 v 9.856 h -3.104 v -22.928 z"
         style="font-style:normal;font-variant:normal;font-weight:normal;font-stretch:normal;font-size:32px;font-family:Lato;-inkscape-font-specification:Lato;fill:#333333;fill-opacity:1"
         id="path1846" />
      <path
         d="m 213.93586,210.92662 q 1.456,0 2.688,0.496 1.248,0.48 2.144,1.408 0.912,0.912 1.424,2.272 0.512,1.344 0.512,3.072 0,0.672 -0.144,0.896 -0.144,0.224 -0.544,0.224 h -10.832 q 0.032,1.536 0.416,2.672 0.384,1.136 1.056,1.904 0.672,0.752 1.6,1.13601 0.928,0.36799 2.08,0.36799 1.072,0 1.84,-0.24 0.784,-0.256 1.344,-0.544 0.56,-0.288 0.928,-0.528 0.384,-0.256 0.656,-0.256 0.352,0 0.544,0.272 l 0.8,1.04 q -0.528,0.64 -1.264,1.12001 -0.736,0.46399 -1.584,0.768 -0.832,0.30399 -1.728,0.44799 -0.896,0.16 -1.776,0.16 -1.68,0 -3.104,-0.56 -1.408,-0.576 -2.448,-1.664 -1.024,-1.104 -1.6,-2.72 -0.576,-1.616 -0.576,-3.712 0,-1.69599 0.512,-3.168 0.528,-1.472 1.504,-2.544 0.976,-1.088 2.384,-1.696 1.408,-0.624 3.168,-0.624 z m 0.064,2.096 q -2.064,0 -3.248,1.2 -1.184,1.184 -1.472,3.296 h 8.864 q 0,-0.992 -0.288,-1.808 -0.272,-0.832 -0.816,-1.424 -0.528,-0.608 -1.296,-0.928 -0.768,-0.336 -1.744,-0.336 z"
         style="font-style:normal;font-variant:normal;font-weight:normal;font-stretch:normal;font-size:32px;font-family:Lato;-inkscape-font-specification:Lato;fill:#333333;fill-opacity:1"
         id="path1848" />
      <path
         d="m 234.49585,227.39062 q -0.416,0 -0.64,-0.12799 -0.224,-0.14401 -0.352,-0.54401 l -0.32,-1.52 q -0.64,0.576 -1.264,1.04001 -0.608,0.44799 -1.28,0.768 -0.656,0.30399 -1.424,0.46399 -0.752,0.176 -1.68,0.176 -0.944,0 -1.776,-0.256 -0.832,-0.272 -1.456,-0.8 -0.608,-0.528 -0.976,-1.32799 -0.352,-0.81601 -0.352,-1.92001 0,-0.96 0.528,-1.84 0.528,-0.896 1.712,-1.584 1.184,-0.688 3.088,-1.12 1.904,-0.448 4.672,-0.512 v -1.264 q 0,-1.888 -0.816,-2.848 -0.816,-0.976 -2.384,-0.976 -1.056,0 -1.776,0.272 -0.704,0.25601 -1.232,0.592 -0.512,0.32 -0.896,0.592 -0.368,0.256 -0.736,0.256 -0.288,0 -0.496,-0.144 -0.208,-0.16 -0.352,-0.384 l -0.512,-0.912 q 1.344,-1.296 2.896,-1.936 1.552,-0.64 3.44,-0.64 1.36,0 2.416,0.448 1.056,0.448 1.776,1.248 0.72,0.8 1.088,1.936 0.368,1.136 0.368,2.496 v 10.368 z m -6.112,-1.744 q 0.752,0 1.376,-0.144 0.624,-0.16 1.168,-0.432 0.56,-0.288 1.056,-0.688 0.512,-0.416 0.992,-0.928 v -3.36 q -1.968,0.064 -3.36,0.32 -1.376,0.24 -2.256,0.64 -0.864,0.4 -1.264,0.944 -0.384,0.544 -0.384,1.216 0,0.64 0.208,1.104 0.208,0.464 0.56,0.768 0.368,0.288 0.848,0.432 0.496,0.128 1.056,0.128 z"
         style="font-style:normal;font-variant:normal;font-weight:normal;font-stretch:normal;font-size:32px;font-family:Lato;-inkscape-font-specification:Lato;fill:#333333;fill-opacity:1"
         id="path1850" />
      <path
         d="m 244.86384,227.64662 q -1.92,0 -2.96,-1.072 -1.024,-1.072 -1.024,-3.088 v -9.92 h -1.952 q -0.256,0 -0.432,-0.144 -0.176,-0.15999 -0.176,-0.48 v -1.136 l 2.656,-0.336 0.656,-5.008 q 0.048,-0.24 0.208,-0.384 0.176,-0.16 0.448,-0.16 h 1.44 v 5.584 h 4.688 v 2.064 h -4.688 v 9.728 q 0,1.024 0.496,1.52 0.496,0.496 1.28,0.496 0.448,0 0.768,-0.112 0.336,-0.128 0.576,-0.272 0.24,-0.144 0.4,-0.256 0.176,-0.128 0.304,-0.128 0.224,0 0.4,0.272 l 0.832,1.36 q -0.736,0.688 -1.776,1.08801 -1.04,0.38399 -2.144,0.38399 z"
         style="font-style:normal;font-variant:normal;font-weight:normal;font-stretch:normal;font-size:32px;font-family:Lato;-inkscape-font-specification:Lato;fill:#333333;fill-opacity:1"
         id="path1852" />
      <path
         d="m 254.04782,211.18262 v 10.336 q 0,1.84 0.832,2.848 0.848,1.008 2.576,1.008 1.248,0 2.352,-0.592 1.104,-0.592 2.032,-1.648 v -11.952 h 2.848 v 16.208 h -1.696 q -0.608,0 -0.768,-0.592 l -0.224,-1.744 q -1.056,1.168 -2.368,1.888 -1.312,0.704 -3.008,0.704 -1.328,0 -2.352,-0.432 -1.008,-0.448 -1.696,-1.248 -0.688,-0.8 -1.04,-1.936 -0.336,-1.136 -0.336,-2.512 v -10.336 z"
         style="font-style:normal;font-variant:normal;font-weight:normal;font-stretch:normal;font-size:32px;font-family:Lato;-inkscape-font-specification:Lato;fill:#333333;fill-opacity:1"
         id="path1854" />
      <path
         d="m 269.19979,227.39062 v -16.208 h 1.632 q 0.464,0 0.64,0.176 0.176,0.176 0.24,0.608 l 0.176,2.464 q 0.768,-1.664 1.888,-2.592 1.136,-0.944 2.752,-0.944 0.512,0 0.976,0.112 0.48,0.112 0.848,0.352 l -0.208,2.128 q -0.096,0.4 -0.48,0.4 -0.224,0 -0.656,-0.096 -0.432,-0.096 -0.976,-0.096 -0.768,0 -1.376,0.24 -0.608,0.224 -1.088,0.672 -0.464,0.432 -0.832,1.072 -0.368,0.64 -0.672,1.472 v 10.24 z"
         style="font-style:normal;font-variant:normal;font-weight:normal;font-stretch:normal;font-size:32px;font-family:Lato;-inkscape-font-specification:Lato;fill:#333333;fill-opacity:1"
         id="path1856" />
      <path
         d="m 286.83173,210.92662 q 1.456,0 2.688,0.496 1.248,0.48 2.144,1.408 0.912,0.912 1.424,2.272 0.512,1.344 0.512,3.072 0,0.672 -0.144,0.896 -0.144,0.224 -0.544,0.224 h -10.832 q 0.032,1.536 0.416,2.672 0.384,1.136 1.056,1.904 0.672,0.752 1.6,1.13601 0.928,0.36799 2.08,0.36799 1.072,0 1.84,-0.24 0.784,-0.256 1.344,-0.544 0.56,-0.288 0.928,-0.528 0.384,-0.256 0.656,-0.256 0.352,0 0.544,0.272 l 0.8,1.04 q -0.528,0.64 -1.264,1.12001 -0.736,0.46399 -1.584,0.768 -0.832,0.30399 -1.728,0.44799 -0.896,0.16 -1.776,0.16 -1.68,0 -3.104,-0.56 -1.408,-0.576 -2.448,-1.664 -1.024,-1.104 -1.6,-2.72 -0.576,-1.616 -0.576,-3.712 0,-1.69599 0.512,-3.168 0.528,-1.472 1.504,-2.544 0.976,-1.088 2.384,-1.696 1.408,-0.624 3.168,-0.624 z m 0.064,2.096 q -2.064,0 -3.248,1.2 -1.184,1.184 -1.472,3.296 h 8.864 q 0,-0.992 -0.288,-1.808 -0.272,-0.832 -0.816,-1.424 -0.528,-0.608 -1.296,-0.928 -0.768,-0.336 -1.744,-0.336 z"
         style="font-style:normal;font-variant:normal;font-weight:normal;font-stretch:normal;font-size:32px;font-family:Lato;-inkscape-font-specification:Lato;fill:#333333;fill-opacity:1"
         id="path1858" />
      <path
         d="m 306.52773,213.85462 q -0.192,0.352 -0.592,0.352 -0.24,0 -0.544,-0.176 -0.304,-0.176 -0.752,-0.384 -0.432,-0.224 -1.04,-0.4 -0.608,-0.192 -1.44,-0.192 -0.72,0 -1.296,0.192 -0.576,0.176 -0.992,0.496 -0.4,0.32 -0.624,0.752 -0.208,0.416 -0.208,0.912 0,0.624 0.352,1.04 0.368,0.416 0.96,0.72 0.592,0.304 1.344,0.544 0.752,0.224 1.536,0.496 0.8,0.256 1.552,0.576 0.752,0.32 1.344,0.8 0.592,0.48 0.944,1.184 0.368,0.688 0.368,1.664 0,1.12 -0.4,2.08 -0.4,0.944 -1.184,1.648 -0.784,0.688 -1.92,1.088 -1.136,0.4 -2.624,0.4 -1.696,0 -3.072,-0.544 -1.376,-0.56 -2.336,-1.424 l 0.672,-1.088 q 0.128,-0.208 0.304,-0.32 0.176,-0.112 0.448,-0.112 0.288,0 0.608,0.224 0.32,0.224 0.768,0.496 0.464,0.272 1.12,0.496 0.656,0.224 1.632,0.224 0.832,0 1.456,-0.208 0.624,-0.224 1.04,-0.592 0.416,-0.368 0.608,-0.848 0.208,-0.48 0.208,-1.024 0,-0.672 -0.368,-1.104 -0.352,-0.448 -0.944,-0.752 -0.592,-0.31999 -1.36,-0.544 -0.752,-0.24 -1.552,-0.496 -0.784,-0.256 -1.552,-0.576 -0.752,-0.336 -1.344,-0.832 -0.592,-0.496 -0.96,-1.216 -0.352,-0.736 -0.352,-1.776 0,-0.928 0.384,-1.776 0.384,-0.864 1.12,-1.504 0.736,-0.656 1.808,-1.04 1.072,-0.384 2.448,-0.384 1.6,0 2.864,0.512 1.28,0.496 2.208,1.376 z"
         style="font-style:normal;font-variant:normal;font-weight:normal;font-stretch:normal;font-size:32px;font-family:Lato;-inkscape-font-specification:Lato;fill:#333333;fill-opacity:1"
         id="path1860" />
    </g>
  </g>
</svg>
